<svg width="865" height="865" viewBox="0 0 865 865" fill="none" xmlns="http://www.w3.org/2000/svg">
<path d="M620.651 329.071C636.97 329.071 652.922 324.232 666.491 315.166C680.059 306.1 690.635 293.214 696.88 278.137C703.125 263.06 704.759 246.47 701.575 230.465C698.391 214.46 690.533 199.758 678.994 188.219C667.455 176.679 652.753 168.821 636.748 165.637C620.742 162.454 604.152 164.088 589.076 170.333C573.999 176.578 561.113 187.153 552.047 200.722C542.98 214.29 538.141 230.243 538.141 246.562C538.14 257.397 540.274 268.127 544.42 278.138C548.567 288.149 554.644 297.245 562.306 304.906C569.968 312.568 579.064 318.646 589.075 322.792C599.086 326.938 609.815 329.072 620.651 329.071ZM367.655 700.674C327.878 700.674 288.994 688.879 255.92 666.78C222.847 644.681 197.069 613.27 181.847 576.521C166.625 539.772 162.642 499.333 170.402 460.32C178.162 421.307 197.317 385.472 225.444 357.345C253.571 329.218 289.406 310.064 328.419 302.303C367.432 294.543 407.871 298.526 444.62 313.748C481.369 328.971 512.78 354.749 534.879 387.822C556.978 420.896 568.773 459.78 568.773 499.557C568.773 525.969 563.572 552.121 553.465 576.522C543.358 600.923 528.544 623.095 509.868 641.77C491.193 660.446 469.021 675.26 444.62 685.367C420.219 695.474 394.067 700.675 367.655 700.674Z" fill="white"/>
</svg>
